<svg width="28" height="28" viewBox="0 0 28 28" fill="none" xmlns="http://www.w3.org/2000/svg">
<path d="M1.91998 3.23279C1.53807 3.23279 1.1718 3.37995 0.901747 3.64191C0.631694 3.90386 0.47998 4.25915 0.47998 4.62961C0.47998 5.00007 0.631694 5.35536 0.901747 5.61732C1.1718 5.87927 1.53807 6.02644 1.91998 6.02644H3.67678L4.11598 7.73336C4.12034 7.75301 4.12514 7.77257 4.13038 7.79203L6.0859 15.3768L4.79998 16.6228C2.98558 18.3828 4.27006 21.3915 6.83614 21.3915H19.2C19.5819 21.3915 19.9482 21.2444 20.2182 20.9824C20.4883 20.7204 20.64 20.3652 20.64 19.9947C20.64 19.6242 20.4883 19.2689 20.2182 19.007C19.9482 18.745 19.5819 18.5979 19.2 18.5979H6.83614L8.27614 17.201H17.76C18.0273 17.2009 18.2894 17.1286 18.5167 16.9921C18.7441 16.8557 18.9278 16.6606 19.0473 16.4286L23.3673 8.04765C23.477 7.83474 23.5288 7.59818 23.5178 7.36042C23.5067 7.12265 23.4332 6.89156 23.3043 6.68909C23.1753 6.48661 22.9951 6.31945 22.7809 6.20348C22.5666 6.08751 22.3253 6.02657 22.08 6.02644H6.64318L6.19678 4.29018C6.11877 3.98813 5.93895 3.72001 5.68588 3.52843C5.43281 3.33685 5.121 3.2328 4.79998 3.23279H1.91998Z" fill="#1D1D1D"/>
<path d="M20.64 24.8836C20.64 25.4393 20.4124 25.9722 20.0074 26.3651C19.6023 26.7581 19.0529 26.9788 18.48 26.9788C17.9071 26.9788 17.3577 26.7581 16.9527 26.3651C16.5476 25.9722 16.32 25.4393 16.32 24.8836C16.32 24.3279 16.5476 23.7949 16.9527 23.402C17.3577 23.0091 17.9071 22.7883 18.48 22.7883C19.0529 22.7883 19.6023 23.0091 20.0074 23.402C20.4124 23.7949 20.64 24.3279 20.64 24.8836Z" fill="#1D1D1D"/>
<path d="M6.95999 26.9788C7.53286 26.9788 8.08226 26.7581 8.48734 26.3651C8.89242 25.9722 9.11999 25.4393 9.11999 24.8836C9.11999 24.3279 8.89242 23.7949 8.48734 23.402C8.08226 23.0091 7.53286 22.7883 6.95999 22.7883C6.38712 22.7883 5.83772 23.0091 5.43264 23.402C5.02756 23.7949 4.79999 24.3279 4.79999 24.8836C4.79999 25.4393 5.02756 25.9722 5.43264 26.3651C5.83772 26.7581 6.38712 26.9788 6.95999 26.9788V26.9788Z" fill="#1D1D1D"/>
<rect x="16" width="12" height="12" rx="6" fill="#FFCB45"/>
<path d="M19.8699 9V8.28409L22.0847 5.98935C22.3212 5.74006 22.5162 5.52166 22.6696 5.33416C22.8251 5.14453 22.9412 4.96449 23.0179 4.79403C23.0946 4.62358 23.133 4.44247 23.133 4.25071C23.133 4.03338 23.0819 3.84588 22.9796 3.68821C22.8773 3.52841 22.7377 3.40589 22.5609 3.32067C22.3841 3.23331 22.1848 3.18963 21.9632 3.18963C21.7289 3.18963 21.5243 3.23757 21.3496 3.33345C21.1749 3.42933 21.0407 3.56463 20.9469 3.73935C20.8532 3.91406 20.8063 4.11861 20.8063 4.35298H19.8635C19.8635 3.95455 19.9551 3.60618 20.1383 3.30788C20.3216 3.00959 20.573 2.77841 20.8926 2.61435C21.2122 2.44815 21.5755 2.36506 21.9824 2.36506C22.3936 2.36506 22.7559 2.44709 23.0691 2.61115C23.3844 2.77308 23.6305 2.99467 23.8074 3.27592C23.9842 3.55504 24.0726 3.87038 24.0726 4.22195C24.0726 4.46484 24.0268 4.70241 23.9352 4.93466C23.8457 5.1669 23.6891 5.42578 23.4654 5.71129C23.2417 5.99467 22.9306 6.33878 22.5321 6.74361L21.2314 8.10511V8.15305H24.1781V9H19.8699Z" fill="#1D1D1D"/>
</svg>
