<svg width="167" height="48" viewBox="0 0 167 48" fill="none" xmlns="http://www.w3.org/2000/svg">
<path d="M2.184 39.1244V22.3244H5.784V35.8844H13.392V39.1244H2.184ZM21.8139 39.3644C20.4379 39.3644 19.2299 39.0844 18.1899 38.5244C17.1659 37.9644 16.3659 37.1964 15.7899 36.2204C15.2299 35.2444 14.9499 34.1324 14.9499 32.8844C14.9499 31.8924 15.1099 30.9884 15.4299 30.1724C15.7499 29.3404 16.1979 28.6284 16.7739 28.0364C17.3499 27.4444 18.0299 26.9884 18.8139 26.6684C19.6139 26.3324 20.4859 26.1644 21.4299 26.1644C22.2939 26.1644 23.0859 26.3244 23.8059 26.6444C24.5419 26.9484 25.1739 27.3884 25.7019 27.9644C26.2459 28.5244 26.6619 29.1884 26.9499 29.9564C27.2379 30.7244 27.3739 31.5644 27.3579 32.4764L27.3339 33.5324H17.1339L16.5819 31.4204H24.5259L24.1179 31.8524V31.3484C24.0859 30.9004 23.9419 30.5084 23.6859 30.1724C23.4459 29.8364 23.1339 29.5724 22.7499 29.3804C22.3659 29.1724 21.9419 29.0684 21.4779 29.0684C20.7579 29.0684 20.1499 29.2124 19.6539 29.5004C19.1739 29.7724 18.8059 30.1724 18.5499 30.7004C18.3099 31.2124 18.1899 31.8524 18.1899 32.6204C18.1899 33.3724 18.3499 34.0364 18.6699 34.6124C18.9899 35.1724 19.4459 35.6044 20.0379 35.9084C20.6459 36.2124 21.3579 36.3644 22.1739 36.3644C22.7339 36.3644 23.2459 36.2764 23.7099 36.1004C24.1739 35.9244 24.6779 35.6204 25.2219 35.1884L26.8299 37.4684C26.3819 37.8684 25.8779 38.2124 25.3179 38.5004C24.7579 38.7884 24.1819 39.0044 23.5899 39.1484C22.9979 39.2924 22.4059 39.3644 21.8139 39.3644ZM31.0999 39.1244V23.2124H34.5079V39.1244H31.0999ZM28.7239 29.4764V26.4284H37.1239V29.4764H28.7239ZM39.2252 28.4684L38.1692 27.1964C38.8252 26.9244 39.3532 26.5884 39.7532 26.1884C40.1692 25.7724 40.3772 25.4204 40.3772 25.1324C40.3772 24.9564 40.3052 24.7884 40.1612 24.6284C40.0332 24.4524 39.8652 24.2924 39.6572 24.1484C39.2892 23.8604 39.0332 23.6044 38.8892 23.3804C38.7612 23.1404 38.6972 22.8844 38.6972 22.6124C38.6972 22.1484 38.8572 21.7804 39.1772 21.5084C39.5132 21.2364 39.9452 21.1004 40.4732 21.1004C40.9532 21.1004 41.3772 21.2284 41.7452 21.4844C42.1292 21.7244 42.4332 22.0684 42.6572 22.5164C42.8812 22.9484 42.9932 23.4524 42.9932 24.0284C42.9932 24.5084 42.8972 24.9804 42.7052 25.4444C42.5132 25.9084 42.2492 26.3404 41.9132 26.7404C41.5772 27.1404 41.1772 27.4924 40.7132 27.7964C40.2652 28.1004 39.7692 28.3244 39.2252 28.4684ZM49.9213 39.3644C48.7533 39.3644 47.7053 39.1724 46.7773 38.7884C45.8653 38.4044 45.1213 37.8604 44.5453 37.1564L46.6813 35.3324C47.1773 35.8604 47.7213 36.2444 48.3133 36.4844C48.9213 36.7084 49.5373 36.8204 50.1613 36.8204C50.3853 36.8204 50.5933 36.7964 50.7853 36.7484C50.9773 36.6844 51.1453 36.6044 51.2893 36.5084C51.4333 36.3964 51.5373 36.2684 51.6013 36.1244C51.6813 35.9804 51.7213 35.8124 51.7213 35.6204C51.7213 35.2684 51.5773 34.9964 51.2893 34.8044C51.1613 34.7084 50.9213 34.6044 50.5693 34.4924C50.2333 34.3644 49.8013 34.2284 49.2733 34.0844C48.4573 33.8764 47.7693 33.6364 47.2093 33.3644C46.6493 33.0764 46.1933 32.7484 45.8413 32.3804C45.5533 32.0764 45.3293 31.7244 45.1693 31.3244C45.0253 30.9244 44.9533 30.4844 44.9533 30.0044C44.9533 29.2364 45.1773 28.5644 45.6253 27.9884C46.0733 27.4124 46.6653 26.9644 47.4013 26.6444C48.1533 26.3244 48.9693 26.1644 49.8493 26.1644C50.5053 26.1644 51.1373 26.2444 51.7453 26.4044C52.3693 26.5644 52.9453 26.7964 53.4733 27.1004C54.0173 27.3884 54.4893 27.7324 54.8893 28.1324L53.0653 30.1724C52.7773 29.8844 52.4493 29.6364 52.0813 29.4284C51.7133 29.2044 51.3453 29.0284 50.9773 28.9004C50.6093 28.7564 50.2733 28.6844 49.9693 28.6844C49.6973 28.6844 49.4493 28.7084 49.2253 28.7564C49.0173 28.8044 48.8413 28.8844 48.6973 28.9964C48.5533 29.0924 48.4413 29.2124 48.3613 29.3564C48.2973 29.5004 48.2653 29.6604 48.2653 29.8364C48.2653 30.0124 48.3053 30.1804 48.3853 30.3404C48.4813 30.4844 48.6093 30.6204 48.7693 30.7484C48.9293 30.8444 49.1853 30.9564 49.5373 31.0844C49.9053 31.2124 50.3773 31.3564 50.9533 31.5164C51.7213 31.7244 52.3693 31.9564 52.8973 32.2124C53.4253 32.4684 53.8493 32.7644 54.1693 33.1004C54.4573 33.3884 54.6573 33.7244 54.7693 34.1084C54.8973 34.4764 54.9613 34.8764 54.9613 35.3084C54.9613 36.0924 54.7373 36.7964 54.2893 37.4204C53.8573 38.0284 53.2573 38.5084 52.4893 38.8604C51.7373 39.1964 50.8813 39.3644 49.9213 39.3644ZM57.8949 39.1244V22.3244H61.4949V39.1244H57.8949ZM59.5509 32.4524V29.3324H68.2629V32.4524H59.5509ZM59.5509 25.5644V22.3244H69.2709V25.5644H59.5509ZM77.6621 39.3644C76.3821 39.3644 75.2301 39.0844 74.2061 38.5244C73.1981 37.9484 72.3981 37.1644 71.8061 36.1724C71.2301 35.1804 70.9421 34.0524 70.9421 32.7884C70.9421 31.4924 71.2301 30.3484 71.8061 29.3564C72.3981 28.3644 73.1981 27.5884 74.2061 27.0284C75.2301 26.4524 76.3821 26.1644 77.6621 26.1644C78.9581 26.1644 80.1101 26.4524 81.1181 27.0284C82.1261 27.5884 82.9181 28.3644 83.4941 29.3564C84.0861 30.3484 84.3821 31.4924 84.3821 32.7884C84.3821 34.0524 84.0861 35.1804 83.4941 36.1724C82.9181 37.1644 82.1261 37.9484 81.1181 38.5244C80.1101 39.0844 78.9581 39.3644 77.6621 39.3644ZM77.6621 36.4124C78.3021 36.4124 78.8621 36.2524 79.3421 35.9324C79.8381 35.6124 80.2221 35.1804 80.4941 34.6364C80.7821 34.0924 80.9181 33.4764 80.9021 32.7884C80.9181 32.0684 80.7821 31.4364 80.4941 30.8924C80.2221 30.3324 79.8381 29.9004 79.3421 29.5964C78.8621 29.2764 78.3021 29.1164 77.6621 29.1164C77.0381 29.1164 76.4781 29.2764 75.9821 29.5964C75.4861 29.9164 75.0941 30.3484 74.8061 30.8924C74.5181 31.4364 74.3821 32.0684 74.3981 32.7884C74.3821 33.4764 74.5181 34.0924 74.8061 34.6364C75.0941 35.1804 75.4861 35.6124 75.9821 35.9324C76.4781 36.2524 77.0381 36.4124 77.6621 36.4124ZM92.8262 39.3644C91.5462 39.3644 90.3942 39.0844 89.3702 38.5244C88.3622 37.9484 87.5622 37.1644 86.9702 36.1724C86.3942 35.1804 86.1062 34.0524 86.1062 32.7884C86.1062 31.4924 86.3942 30.3484 86.9702 29.3564C87.5622 28.3644 88.3622 27.5884 89.3702 27.0284C90.3942 26.4524 91.5462 26.1644 92.8262 26.1644C94.1222 26.1644 95.2742 26.4524 96.2822 27.0284C97.2902 27.5884 98.0822 28.3644 98.6582 29.3564C99.2502 30.3484 99.5462 31.4924 99.5462 32.7884C99.5462 34.0524 99.2502 35.1804 98.6582 36.1724C98.0822 37.1644 97.2902 37.9484 96.2822 38.5244C95.2742 39.0844 94.1222 39.3644 92.8262 39.3644ZM92.8262 36.4124C93.4662 36.4124 94.0262 36.2524 94.5062 35.9324C95.0022 35.6124 95.3862 35.1804 95.6582 34.6364C95.9462 34.0924 96.0822 33.4764 96.0662 32.7884C96.0822 32.0684 95.9462 31.4364 95.6582 30.8924C95.3862 30.3324 95.0022 29.9004 94.5062 29.5964C94.0262 29.2764 93.4662 29.1164 92.8262 29.1164C92.2022 29.1164 91.6422 29.2764 91.1462 29.5964C90.6502 29.9164 90.2582 30.3484 89.9702 30.8924C89.6822 31.4364 89.5462 32.0684 89.5622 32.7884C89.5462 33.4764 89.6822 34.0924 89.9702 34.6364C90.2582 35.1804 90.6502 35.6124 91.1462 35.9324C91.6422 36.2524 92.2022 36.4124 92.8262 36.4124ZM107.102 39.3644C105.998 39.3644 104.998 39.0844 104.102 38.5244C103.222 37.9644 102.526 37.1884 102.014 36.1964C101.518 35.1884 101.27 34.0524 101.27 32.7884C101.27 31.5084 101.518 30.3724 102.014 29.3804C102.526 28.3884 103.222 27.6044 104.102 27.0284C104.982 26.4524 105.982 26.1644 107.102 26.1644C107.694 26.1644 108.262 26.2604 108.806 26.4524C109.366 26.6284 109.862 26.8764 110.294 27.1964C110.726 27.5164 111.078 27.8764 111.35 28.2764C111.622 28.6604 111.782 29.0604 111.83 29.4764L110.966 29.6444V21.3644H114.35V39.1244H111.134L110.99 36.1964L111.662 36.2924C111.646 36.6764 111.51 37.0524 111.254 37.4204C110.998 37.7884 110.654 38.1244 110.222 38.4284C109.806 38.7164 109.326 38.9484 108.782 39.1244C108.254 39.2844 107.694 39.3644 107.102 39.3644ZM107.846 36.5324C108.502 36.5324 109.062 36.3724 109.526 36.0524C110.006 35.7324 110.382 35.2924 110.654 34.7324C110.926 34.1724 111.062 33.5244 111.062 32.7884C111.062 32.0364 110.926 31.3804 110.654 30.8204C110.382 30.2444 110.006 29.8044 109.526 29.5004C109.062 29.1804 108.502 29.0204 107.846 29.0204C107.222 29.0204 106.67 29.1804 106.19 29.5004C105.71 29.8044 105.334 30.2444 105.062 30.8204C104.806 31.3804 104.678 32.0364 104.678 32.7884C104.678 33.5244 104.806 34.1724 105.062 34.7324C105.334 35.2924 105.71 35.7324 106.19 36.0524C106.67 36.3724 107.222 36.5324 107.846 36.5324Z" fill="#1D1D1D"/>
<path d="M139.1 10.9594C139.584 10.9594 140.048 10.7684 140.392 10.4279C140.735 10.0874 140.931 9.6249 140.936 9.14104C140.94 8.65687 140.754 8.19044 140.416 7.84328C140.079 7.49613 139.618 7.29636 139.133 7.28748M138.941 14.6136C138.457 14.6136 137.993 14.4226 137.649 14.0821C137.305 13.7416 137.11 13.2791 137.105 12.7953C137.1 12.3111 137.287 11.8447 137.625 11.4975C137.962 11.1504 138.423 10.9506 138.907 10.9417M139.1 18.2855C139.584 18.2855 140.048 18.0945 140.392 17.754C140.735 17.4135 140.931 16.951 140.936 16.4672C140.94 15.983 140.754 15.5166 140.416 15.1694C140.079 14.8223 139.618 14.6225 139.133 14.6136M146.443 10.9594C146.927 10.9594 147.392 10.7684 147.735 10.4279C148.079 10.0874 148.275 9.6249 148.279 9.14104C148.284 8.65687 148.097 8.19044 147.76 7.84328C147.422 7.49613 146.961 7.29636 146.477 7.28748M146.285 14.6136C145.801 14.6136 145.337 14.4226 144.993 14.0821C144.649 13.7416 144.453 13.2791 144.449 12.7953C144.444 12.3111 144.631 11.8447 144.968 11.4975C145.306 11.1504 145.767 10.9506 146.251 10.9417M146.443 18.2855C146.927 18.2855 147.392 18.0945 147.735 17.754C148.079 17.4135 148.275 16.951 148.279 16.4672C148.284 15.983 148.097 15.5166 147.76 15.1694C147.422 14.8223 146.961 14.6225 146.477 14.6136M132.324 10.9594C132.808 10.9594 133.272 10.7684 133.616 10.4279C133.96 10.0874 134.156 9.6249 134.16 9.14104C134.165 8.65712 133.978 8.1909 133.641 7.84379C133.304 7.49668 132.843 7.29674 132.36 7.28748M132.167 14.6136C131.683 14.6136 131.219 14.4226 130.875 14.0821C130.531 13.7416 130.336 13.2791 130.331 12.7953C130.326 12.3114 130.513 11.8452 130.85 11.498C131.187 11.1509 131.648 10.951 132.132 10.9417M132.324 18.2855C132.808 18.2855 133.272 18.0945 133.616 17.754C133.96 17.4135 134.156 16.951 134.16 16.4672C134.165 15.9832 133.978 15.517 133.641 15.1699C133.304 14.8228 132.843 14.6229 132.36 14.6136" stroke="#FAA41A" stroke-linecap="round" stroke-linejoin="round"/>
<path d="M133.04 39.9613H146.255V35.5903C143.44 36.8329 141.799 37.0268 139.517 37.0738C136.663 37.1325 134.729 36.639 133.04 36.216V39.9613Z" stroke="#383747" stroke-linecap="round" stroke-linejoin="round"/>
<path d="M156.281 24.137C153.814 33.3519 144.383 38.8201 135.168 36.3511C132.243 35.5703 129.577 34.0322 127.436 31.8919C125.296 29.7516 123.758 27.0848 122.977 24.1605L156.281 24.137Z" fill="#FAA41A" stroke="#383747" stroke-linecap="round" stroke-linejoin="round"/>
<path d="M122.968 21.1921H156.287V24.2163H122.968V21.1921Z" stroke="#383747" stroke-linecap="round" stroke-linejoin="round"/>
<path d="M144.49 21.1833C155.946 21.6357 153.066 13.4723 161.533 12.735C162.37 12.6616 162.811 12.6454 163.986 12.7203L164.03 12.7057C162.569 11.8362 159.875 10.3645 157.626 10.9887C156.476 11.3089 154.685 12.5456 153.485 14.9029C150.463 21.5182 147.521 21.1701 145.127 21.1818L144.49 21.1833Z" stroke="#383747" stroke-linecap="round" stroke-linejoin="round"/>
<path d="M151.54 26.7323C150.5 29.9048 147.717 32.1079 144.486 32.7072" stroke="white" stroke-linecap="round" stroke-linejoin="round"/>
</svg>
