<svg width="21" height="21" viewBox="0 0 21 21" fill="none" xmlns="http://www.w3.org/2000/svg">
<path d="M3.525 18.9645C3.49074 19.1111 3.49012 19.2637 3.52319 19.4106C3.55627 19.5576 3.62218 19.6951 3.71598 19.813C3.80978 19.9308 3.92904 20.0259 4.06482 20.0911C4.2006 20.1563 4.34937 20.1899 4.5 20.1895C4.69753 20.1895 4.89065 20.1311 5.055 20.0215L10.5 16.3915L15.945 20.0215C16.1153 20.1346 16.3162 20.1928 16.5206 20.1883C16.725 20.1838 16.9232 20.1168 17.0884 19.9964C17.2536 19.8759 17.378 19.7078 17.4448 19.5145C17.5116 19.3213 17.5176 19.1122 17.462 18.9155L15.633 12.5155L20.169 8.43347C20.3143 8.30266 20.418 8.13213 20.4674 7.94298C20.5168 7.75383 20.5097 7.55435 20.4469 7.36921C20.3841 7.18407 20.2684 7.02139 20.1142 6.90129C19.9599 6.78119 19.7739 6.70894 19.579 6.69347L13.878 6.23947L11.411 0.778468C11.3324 0.60258 11.2046 0.453189 11.043 0.348325C10.8814 0.243461 10.693 0.187606 10.5003 0.1875C10.3077 0.187394 10.1191 0.243043 9.95742 0.347729C9.79571 0.452416 9.66776 0.601666 9.589 0.777468L7.122 6.23947L1.421 6.69247C1.22945 6.70764 1.04633 6.77768 0.893551 6.8942C0.740768 7.01072 0.624789 7.16879 0.559489 7.3495C0.494189 7.53021 0.482334 7.7259 0.525341 7.91317C0.568348 8.10044 0.664396 8.27135 0.801996 8.40547L5.016 12.5125L3.525 18.9645ZM10.5 3.61847L12.542 8.13947L13.13 8.18647H13.131L17.103 8.50147L13.832 11.4455L13.831 11.4475L13.368 11.8635L13.539 12.4605V12.4635L14.792 16.8485L10.5 13.9875V3.61847Z" fill="#FFCB45"/>
</svg>
